PathFileType	4	(X/Y/Z)	Walk4.trc
DataRate	CameraRate	NumFrames	NumMarkers	Units	OrigDataRate	OrigDataStartFrame	OrigNumFrames
200.000000	200.000000	4	59	mm	200.000000	286	543
Frame#	Times		RFHD		CLAV		RBack		LASI		RACR1		RUA1		RElbow		RElbowM		RFA1		RWRR		RWRU		LACR1		LUA1		LFA1		LWRR		LWRU		RTH1		RTH3		RTH2		RTB3		RTB2		LTH1		LTH2		LTB2		RMT1		RCAR		LFHD		C7		RTB1		RTB4		RPSI		T10		LTH4		LBHD		LTH3		RLFC		STRN		RBHD		LLFC		LElbowM		LCAR		LTB4		RTH4		LTB1		LElbow		LPSI		LToe		LMMAL		RMT5		LCAL		RASI		LMT1		LMT5		LTB3		LLMAL		RToe		RCAL		RMMAL		RLMAL
			X1	Y1	Z1	X2	Y2	Z2	X3	Y3	Z3	X4	Y4	Z4	X5	Y5	Z5	X6	Y6	Z6	X7	Y7	Z7	X8	Y8	Z8	X9	Y9	Z9	X10	Y10	Z10	X11	Y11	Z11	X12	Y12	Z12	X13	Y13	Z13	X14	Y14	Z14	X15	Y15	Z15	X16	Y16	Z16	X17	Y17	Z17	X18	Y18	Z18	X19	Y19	Z19	X20	Y20	Z20	X21	Y21	Z21	X22	Y22	Z22	X23	Y23	Z23	X24	Y24	Z24	X25	Y25	Z25	X26	Y26	Z26	X27	Y27	Z27	X28	Y28	Z28	X29	Y29	Z29	X30	Y30	Z30	X31	Y31	Z31	X32	Y32	Z32	X33	Y33	Z33	X34	Y34	Z34	X35	Y35	Z35	X36	Y36	Z36	X37	Y37	Z37	X38	Y38	Z38	X39	Y39	Z39	X40	Y40	Z40	X41	Y41	Z41	X42	Y42	Z42	X43	Y43	Z43	X44	Y44	Z44	X45	Y45	Z45	X46	Y46	Z46	X47	Y47	Z47	X48	Y48	Z48	X49	Y49	Z49	X50	Y50	Z50	X51	Y51	Z51	X52	Y52	Z52	X53	Y53	Z53	X54	Y54	Z54	X55	Y55	Z55	X56	Y56	Z56	X57	Y57	Z57	X58	Y58	Z58	X59	Y59	Z59

286	1.43	-418.56	1404.2	16.999	-439.99	1164.8	-44.473	-624.92	1130.5	82.434	-476.12	796.5	-199.75	-506.74	1199.2	136.98	-486.25	1058.7	219.22	-485.8	934.73	258.24	-542.56	895.75	194.74	-409.69	826.68	253.4	-383.75	732.06	212.2	-407.79	728.01	280.61	-531.67	1191.5	-228.09	-545.45	1030.1	-299.21	-572.78	828.55	-362.78	-556.52	712.74	-362.65	-611.51	724.79	-391.55	-547.58	619.87	164.68	-592.49	461.38	111.29	-516.08	531.81	120.48	-707.65	118.27	4.394	-703.49	201.72	70.119	-520.22	631.15	-254.85	-448.87	573.58	-209.47	-370.78	225.14	-157.61	-673.36	28.606	-35.695	-354.79	681.37	262.16	-409.12	1414.8	-78.496	-581.95	1251.4	-39.703	-630.46	269.76	32.03	-672	194.29	18.136	-717.01	836.37	19.004	-670.01	1054.1	-22.566	-497.63	549.9	-235.26	-536.73	1338.6	-108.74	-476.29	470.14	-204.32	-643.99	382.6	87.894	-390.94	1057.7	-39.078	-548.27	1332.9	23.7	-424.94	394.15	-166.65	-618.82	895.41	-241.94	-586.85	667.34	-406.08	-345.97	232.27	-101.23	-571.59	541.83	141.29	-367.35	317.47	-103.85	-602.07	923.11	-312.21	-724.77	829.57	-84.529	-172.07	100.92	-113.18	-320.49	88.192	-54.919	-698.65	21.863	56.707	-372.05	35.084	-80.809	-460.65	813.97	129.87	-212.45	87.085	-82.404	-250.01	49.185	-153.69	-319.45	153.45	-100.62	-343.21	64.033	-130.07	-614.49	28.41	0.67115	-836.58	61.449	-7.6145	-760.96	82.611	-45.371	-773.95	72.473	37.704
287	1.435	-413.34	1403.8	16.555	-434.65	1164.4	-45.036	-619.8	1129.9	81.566	-470.29	795.83	-200.08	-501.74	1198.6	136.38	-481.31	1058.1	218.64	-481.01	934.28	257.74	-537.62	895.26	194.1	-404.97	826.18	253.18	-378.93	731.48	212.22	-403.24	727.54	280.59	-526.21	1191	-228.79	-539.84	1029.5	-299.86	-566.9	827.84	-363.37	-550.56	712.02	-363.22	-605.56	724.05	-392.08	-541.88	619.64	164.66	-587.24	461.14	111.59	-510.66	531.41	120.59	-706.26	118.97	4.841	-700.86	202.28	70.644	-514.39	630.7	-254.81	-442.7	573.45	-209.58	-366.11	224.06	-156.56	-673.32	28.768	-35.552	-350.16	680.92	262.39	-403.91	1414.4	-78.937	-576.7	1250.9	-40.459	-627.02	269.39	32.482	-669.57	194.47	18.603	-711.41	835.89	18.431	-664.58	1053.5	-23.401	-491.55	549.53	-235.01	-531.49	1338.2	-109.24	-469.92	469.94	-203.85	-639.2	382.5	88.352	-385.52	1057.3	-39.336	-543.02	1332.4	23.199	-418.83	393.79	-166.18	-612.88	894.63	-242.51	-580.91	666.61	-406.62	-341.52	231.03	-100.08	-566.13	541.61	141.44	-362.02	316.4	-102.95	-596.23	922.36	-312.77	-718.84	829.07	-84.956	-168.74	96.71	-110.74	-317.95	86.668	-53.546	-698.46	21.871	56.781	-370.01	34.753	-79.938	-455.34	814.12	130.14	-209.83	83.777	-80.248	-247.49	46.68	-151.96	-315.78	152.01	-99.21	-340.5	63.035	-128.86	-614.48	28.349	0.55509	-835.93	63.947	-6.9675	-760.15	84.098	-44.826	-773.08	73.954	38.275
288	1.44	-408.12	1403.4	16.093	-429.3	1164	-45.633	-614.66	1129.4	80.68	-464.46	795.26	-200.46	-496.7	1198.1	135.74	-476.37	1057.7	218.03	-476.24	933.88	257.21	-532.71	894.83	193.43	-400.32	825.71	252.94	-374.19	730.92	212.23	-398.78	727.1	280.54	-520.73	1190.5	-229.53	-534.22	1028.9	-300.53	-560.93	827.16	-363.95	-544.47	711.33	-363.76	-599.47	723.3	-392.6	-536.11	619.44	164.65	-581.87	460.91	111.91	-505.14	531.05	120.7	-704.78	119.73	5.3223	-698.09	202.87	71.217	-508.39	630.39	-254.75	-436.39	573.42	-209.66	-361.5	223.03	-155.57	-673.28	28.944	-35.4	-345.63	680.48	262.6	-398.69	1414.1	-79.395	-571.41	1250.5	-41.242	-623.43	269.02	32.977	-667.03	194.68	19.113	-705.74	835.43	17.898	-659.12	1053	-24.242	-485.33	549.28	-234.75	-526.23	1337.9	-109.76	-463.45	469.86	-203.39	-634.22	382.38	88.859	-380.07	1057	-39.662	-537.75	1331.9	22.673	-412.63	393.54	-165.74	-606.91	893.89	-243.11	-574.8	665.88	-407.11	-337.16	229.81	-98.963	-560.57	541.4	141.6	-356.74	315.37	-102.08	-590.35	921.64	-313.36	-712.9	828.61	-85.345	-165.62	92.227	-108.27	-315.66	85.139	-52.231	-698.26	21.884	56.86	-368.26	34.547	-79.167	-449.98	814.31	130.34	-207.45	80.272	-78.101	-245.25	44.101	-150.3	-312.27	150.57	-97.829	-338	62.087	-127.73	-614.47	28.292	0.41763	-835.18	66.609	-6.2813	-759.25	85.685	-44.24	-772.13	75.531	38.886
289	1.445	-402.88	1403.1	15.616	-423.92	1163.7	-46.264	-609.47	1128.9	79.781	-458.61	794.8	-200.86	-491.62	1197.7	135.07	-471.42	1057.3	217.41	-471.51	933.54	256.65	-527.82	894.49	192.73	-395.72	825.27	252.69	-369.55	730.38	212.2	-394.42	726.68	280.47	-515.23	1190	-230.29	-528.58	1028.4	-301.22	-554.87	826.49	-364.53	-538.22	710.66	-364.26	-593.23	722.55	-393.1	-530.26	619.29	164.64	-576.36	460.7	112.26	-499.51	530.74	120.83	-703.18	120.56	5.832	-695.17	203.51	71.828	-502.23	630.22	-254.68	-429.96	573.5	-209.71	-356.94	222.08	-154.64	-673.22	29.133	-35.246	-341.2	680.07	262.79	-393.46	1413.9	-79.867	-566.1	1250.1	-42.048	-619.68	268.64	33.516	-664.35	194.92	19.661	-700.01	835	17.409	-653.63	1052.5	-25.085	-479	549.17	-234.48	-520.94	1337.6	-110.31	-456.92	469.88	-202.95	-629.05	382.24	89.411	-374.61	1056.8	-40.059	-532.46	1331.5	22.124	-406.38	393.41	-165.34	-600.91	893.2	-243.74	-568.5	665.16	-407.55	-332.89	228.65	-97.897	-554.91	541.2	141.77	-351.48	314.4	-101.25	-584.42	920.96	-313.98	-706.95	828.19	-85.696	-162.69	87.543	-105.83	-313.53	83.647	-51.004	-698.06	21.907	56.937	-366.74	34.481	-78.512	-444.57	814.55	130.48	-205.27	76.637	-76.004	-243.23	41.506	-148.76	-308.88	149.18	-96.514	-335.67	61.216	-126.7	-614.48	28.237	0.26078	-834.29	69.45	-5.5745	-758.23	87.378	-43.624	-771.09	77.213	39.524
